<?xml version="1.0" standalone="no"?>
<!DOCTYPE svg PUBLIC "-//W3C//DTD SVG 20010904//EN"
 "http://www.w3.org/TR/2001/REC-SVG-20010904/DTD/svg10.dtd">
<svg version="1.0" xmlns="http://www.w3.org/2000/svg"
 width="520.000000pt" height="520.000000pt" viewBox="0 0 520.000000 520.000000"
 preserveAspectRatio="xMidYMid meet">
<metadata>
Created by potrace 1.11, written by Peter Selinger 2001-2013
</metadata>
<g transform="translate(0.000000,520.000000) scale(0.100000,-0.100000)"
fill="#000000" stroke="none">
<path d="M2415 5194 c-394 -39 -673 -116 -985 -273 -305 -153 -602 -388 -822
-651 -166 -197 -337 -486 -431 -726 -166 -424 -217 -918 -141 -1374 22 -133
76 -340 119 -456 48 -130 170 -381 236 -486 149 -236 400 -516 599 -669 378
-292 778 -462 1260 -536 143 -21 529 -24 665 -5 503 72 925 250 1303 549 126
99 329 303 421 423 l73 95 -913 5 c-634 4 -923 9 -945 16 -92 34 -163 93 -201
168 -33 66 -41 176 -42 577 -1 232 2 299 12 314 9 12 35 21 77 27 174 23 259
123 248 288 -12 169 -129 257 -355 268 l-113 5 0 -686 c0 -456 -4 -703 -11
-737 -15 -70 -65 -138 -130 -178 -93 -56 -100 -57 -529 -57 -441 0 -424 -3
-502 73 -72 68 -69 26 -66 1013 l3 884 24 52 c30 67 92 125 165 152 47 18 78
21 190 21 l133 0 6 168 c4 134 10 186 30 262 47 182 116 301 243 419 85 79
208 147 319 175 152 39 333 43 486 11 388 -81 619 -417 619 -902 l0 -123 133
0 c89 0 150 -5 183 -15 60 -18 127 -72 157 -129 l22 -41 3 -878 2 -877 -25
-26 c-20 -20 -32 -24 -53 -19 -61 15 -57 -43 -62 903 -4 679 -8 872 -18 889
-27 48 -64 57 -247 60 -93 2 -180 6 -191 8 -35 8 -43 50 -47 255 -3 160 -8
209 -26 275 -69 255 -226 419 -461 482 -96 26 -328 23 -433 -5 -215 -58 -374
-206 -448 -418 -38 -108 -49 -197 -49 -384 0 -242 18 -224 -232 -230 -180 -5
-195 -7 -224 -27 -66 -47 -64 -12 -64 -964 0 -571 3 -867 10 -880 6 -10 25
-27 43 -36 29 -16 66 -18 377 -18 364 0 394 3 461 48 72 48 69 8 69 823 0 682
1 733 18 753 39 49 282 53 428 7 139 -44 228 -122 275 -243 33 -84 33 -234 1
-315 -44 -109 -149 -199 -266 -229 l-46 -11 0 -322 c0 -204 4 -336 11 -361 17
-61 47 -95 108 -124 l56 -26 937 -3 938 -3 34 53 c18 29 57 100 86 158 287
572 354 1201 195 1826 -45 177 -91 298 -184 489 -251 513 -659 924 -1170 1180
-254 127 -512 208 -803 250 -99 15 -460 27 -543 19z"/>
</g>
</svg>
