<svg xmlns="http://www.w3.org/2000/svg" version="1.1" viewBox="0 0 48 48" fill="white">
 <g transform="matrix(.750 0 0 .750 -.00392 -.00148)">
  <g transform="matrix(.665 0 0 .665 -360 -165)">
   <path d="m597 324c-2.44 0-4.33-0.678-5.63-2.01-1.69-1.74-1.67-3.88-1.67-4.12l-0.142-13c-0.004-0.34 0.129-0.668 0.368-0.91 0.239-0.243 0.566-0.379 0.906-0.379 4.72 0 5.09-4.04 5.11-4.5-0.001-1.91-0.577-3.35-1.76-4.32-2.04-1.68-5.39-1.61-7.07-1.44v25.1c0.013 0.367-0.007 2.06-1.39 3.53-1.3 1.39-3.34 2.09-6.05 2.09h-10.2c-1.88 0-3.31-0.559-4.23-1.66-1.18-1.41-1.06-3.15-1-3.66v-29.6c0-1.94 0.598-3.45 1.78-4.5 1.75-1.56 4.17-1.46 4.67-1.42h3.18v-3.91c-0.001-0.268 0.013-6.8 4.56-11.4 2.8-2.82 6.67-4.25 11.5-4.25 4.53 0 8.19 1.38 10.9 4.09 4.6 4.68 4.54 11.6 4.53 11.9v3.31h3.58c1.97 0 3.48 0.574 4.49 1.7 1.29 1.45 1.24 3.25 1.21 3.7v30.2c0 0.704-0.57 1.27-1.27 1.27-0.704 0-1.27-0.57-1.27-1.27v-30.2c0-0.049 0.003-0.097 0.008-0.145 0 0 0.091-1.08-0.58-1.81-0.507-0.556-1.37-0.838-2.57-0.838h-4.85c-0.704 0-1.27-0.57-1.27-1.27v-4.6c0.001-0.081 0.04-6.2-3.82-10.1-2.17-2.2-5.21-3.32-9.02-3.32-4.12 0-7.38 1.18-9.69 3.5-3.81 3.83-3.82 9.52-3.82 9.57v5.19c0 0.704-0.571 1.27-1.27 1.27h-4.52c-0.048 0-0.096-0.003-0.144-0.008-0.01-0.004-1.73-0.164-2.78 0.792-0.607 0.548-0.915 1.42-0.915 2.59v29.7c0 0.074-0.007 0.147-0.019 0.219 0 0-0.153 1.04 0.431 1.73 0.421 0.49 1.18 0.739 2.27 0.739h10.2c1.93 0 3.37-0.434 4.16-1.25 0.752-0.778 0.732-1.69 0.731-1.73l-0.002-26.3c0-0.608 0.43-1.13 1.03-1.25 0.262-0.051 6.47-1.24 10.2 1.83 1.79 1.47 2.7 3.61 2.7 6.36-0.101 2.26-1.59 6.29-6.37 6.91l0.129 11.9c-0.001 0.052-0.001 1.37 0.969 2.34 0.8 0.807 2.07 1.22 3.78 1.22h33.2c4.62-7.39 7.29-16.1 7.29-25.5 0-26.6-21.5-48.1-48.1-48.1s-48.1 21.5-48.1 48.1 21.5 48.1 48.1 48.1c16.1 0 30.4-7.94 39.1-20.1h-30.3z"/>
  </g>
 </g>
</svg>
