<svg xmlns:rdf="http://www.w3.org/1999/02/22-rdf-syntax-ns#" xmlns="http://www.w3.org/2000/svg" height="3.2e2" viewBox="0 0 320 320" width="3.2e2" version="1.1" xmlns:cc="http://creativecommons.org/ns#" xmlns:dc="http://purl.org/dc/elements/1.1/">
<path style="fill:#209fb6" d="m0 2.3e2v-86l13-0.9c7.2-0.49 13-0.59 14-0.22 0.38 0.38 8.2 30 17 67l17 66c0.17 0.17 7.9-30 17-67l17-67 13 0.83c7.4 0.46 16 1.7 20 2.7l6.2 1.9 21 31 21 31 16-21 16-21h37c21 0 37 0.44 37 0.97 0 2.3-4.3 6.7-8.7 9-2.6 1.3-11 4.7-19 7.4s-16 5.8-18 6.9c-2.3 1.2-11 12-24 31-11 16-22 30-24 31-3.4 3.2-11 5.3-16 4.2-7-1.7-11-5-26-24h-20v50 50h-64-66v-90zm1.7e2 -76c-0.89-0.89-1.5-5.2-1.5-11 0-7.9 0.34-9.3 2.8-11 1.5-1.1 4.5-1.9 6.6-1.9 3.6 0 4-0.5 6-6.7 6.3-20 25-36 46-41l7.2-1.5-3.2-2.7c-2.1-1.8-3.4-4.5-3.9-7.8-0.57-4.2-0.13-5.7 2.7-9 7.9-9.4 22-4.5 22 7.6 0.021 3.6-0.84 5.7-3.5 8.3l-3.6 3.6 8.5 1.9c4.7 1.1 11 3.3 15 5 13 6.7 27 23 30 36 1.4 5.6 2 6.2 5 6.2 1.9 0 4.9 0.55 6.6 1.2 3.1 1.2 3.2 1.7 3.2 11 0 5.9-0.59 10-1.5 11-2.2 2.2-1.4e2 2.2-1.4e2 0zm-1.2e2 -20c-9 0-19 0-26-10-21-22-17-57 8-74 9.5-6.6 18-8.8 31-8.2 19 0.9 33 9.9 41 27 4.5 9.1 4.7 10 4.7 21-0.066 16-3.2 24-14 35-13 13-28 18-45 14z"/>
</svg>
