<svg xmlns:rdf="http://www.w3.org/1999/02/22-rdf-syntax-ns#" xmlns="http://www.w3.org/2000/svg" height="256" viewBox="0 0 256 256" width="256" version="1.1" xmlns:cc="http://creativecommons.org/ns#" xmlns:dc="http://purl.org/dc/elements/1.1/">
<path style="fill:#21a0b7" d="m114 254c-20.1-3-40.1-15-51.5-31-5.1-7-11-19-13.6-29-3.4-12-3.16-30.6 0.557-43 1.48-4.92 4.55-12.5 6.82-16.9 5.41-10.4 17.8-23.5 28-29.6l7.3-3-6.8-17.5c-3.8-9.3-8.7-22.4-11-29l-4.2-12-0.4-20.7-0.3-20.8h59.1 59.1l-0.324 20.8-0.324 20.8-3.73 10.6c-2.05 5.82-7.02 18.9-11.1 29l-7.33 18.4 8.43 5.47c12 7.78 22 18.7 27.7 30.3 16.3 33.1 10.6 69.6-15 95.3-12.2 12.3-26.8 19.9-44 22.9-10.6 1.84-17.4 1.83-27.9-0.0639zm34-10c24.6-7.63 41.9-25.1 49.6-50 1.87-6.05 2.32-9.82 2.34-19.5 0.0278-14.3-1.22-20-7.02-32-7.9-16.4-17.5-26-34-34-11.9-5.82-22.7-7.99-35.5-7.15-11.8 0.771-18.3 2.49-28.5 7.58-15.6 7.77-25.2 17.6-33 33.6-5.72 11.8-7.02 17.7-7.02 31.5s1.3 19.7 7.02 31.5c7.9 16.4 17.7 26.1 34 34.1 4.95 2.4 12.2 5.06 16 5.9 9.69 2.11 26.7 1.41 36-1.48zm-32.2-16.5c-12.7-2.76-26.6-12.8-34.5-24.9-13.4-20.6-10.3-48.7 7.25-66.2 18.1-18 41.2-22.1 62.9-11.3 15.9 7.96 27.6 23.9 30.2 41.1 5.61 37-29.1 69.2-65.9 61.2zm7-25c1.81-1.81 2-3.33 2-16.3 0-7.88 0.24-14.6 0.534-14.9 0.293-0.293 1.98-0.238 3.74 0.122 5.94 1.22 7.02 8.39 1.57 10.4-3 1-3 1-3 10 0 13 0 13 19 13 11.9 0 15.1-0.296 16.1-1.47 1.07-1.29-0.85-1.51-15.1-1.75h-16l-1-8c-0.661-6.47-0.536-7.64 0.912-8.5 6.02-3.59 7.25-9.69 2.84-14.1-2.1-2.1-3.29-2.46-7.25-2.2l-6 1-0.5 16-0.5 16-9.25 0.288-9.25 0.288v-18.3c0-12.9 0.354-18.7 1.2-19.5 0.66-0.66 2.85-1.2 4.86-1.2h3.66l0.556-5.39c1.01-9.79 4.95-14.4 13-15.3 6.51-0.733 11.3 1.72 13.7 6.94 1.07 2.36 1.96 6.4 1.97 8.98l0.022 4.7 4.75 0.305 4.75 0.305 0.273 18.2c0.229 15.3 0.511 18.2 1.75 18.2 1.25 0 1.48-2.83 1.48-18.4 0-20.2-0.009-20.3-6.28-21.3-3.31-0.536-3.49-0.788-4.05-5.52-1.18-9.97-6.89-15.2-16.7-15.3-9.9-0.0621-15.8 5.22-16.9 15.1-0.625 5.82-0.648 5.85-4.13 6.18-6.8 0.638-7 1.26-7 22.3 0 15.7 0.254 19 1.57 20.3 1.19 1.19 3.72 1.57 10.5 1.57 7.6 0 9.23-0.299 10.9-2zm-16-108c8.92-2.92 30.4-3.17 40-0.473 3.58 1 7.11 1.89 7.86 1.98 1.51 0.167 12.5-26 19.2-45.4 4-11.4 4-11.7 4-26.2v-14.7h-23-23v31 31h-4.5-4.5v-31-31h-22.5-22.5v14.5c0 13.9 0.151 14.9 3.45 24.8 1.89 5.66 6.23 17.5 9.62 26.3 8.41 21.7 8.3 21.5 8.9 21.5 0-0.1 3-1.1 7-2.3z"/>
</svg>
