<svg id="svg3264" xmlns="http://www.w3.org/2000/svg" viewBox="0 0 64 64" version="1.1" fill="%2321a0b7">
 <ellipse id="path3342" rx="29.863" stroke="%23fff" ry="29.974" cy="32.407" cx="32.814" stroke-width="3.1534" fill="%23fff"/>
 <g id="layer1" transform="translate(-7.322 -8.1356)">
  <g id="g135" transform="matrix(.66484 0 0 .66484 -359.63 -164.76)">
   <path id="path137" d="m608.08 336.61c-2.437 0-4.33-0.678-5.627-2.013-1.686-1.736-1.673-3.882-1.666-4.121l-0.142-13.041c-0.004-0.34 0.129-0.668 0.368-0.91 0.239-0.243 0.566-0.379 0.906-0.379 4.723 0 5.088-4.044 5.113-4.505-0.001-1.913-0.577-3.348-1.76-4.322-2.044-1.683-5.393-1.607-7.072-1.441v25.11c0.013 0.367-0.007 2.056-1.388 3.53-1.301 1.388-3.337 2.092-6.053 2.092h-10.206c-1.883 0-3.306-0.559-4.232-1.66-1.182-1.407-1.065-3.151-1-3.664v-29.567c0-1.937 0.598-3.452 1.777-4.505 1.752-1.565 4.174-1.462 4.671-1.422h3.184v-3.909c-0.001-0.268 0.013-6.804 4.561-11.378 2.803-2.82 6.672-4.25 11.5-4.25 4.534 0 8.186 1.377 10.856 4.092 4.602 4.683 4.537 11.613 4.533 11.906v3.307h3.576c1.968 0 3.479 0.574 4.488 1.705 1.291 1.448 1.242 3.246 1.206 3.698v30.182c0 0.704-0.57 1.274-1.274 1.274s-1.274-0.57-1.274-1.274v-30.24c0-0.049 0.003-0.097 0.008-0.145 0 0 0.091-1.077-0.58-1.813-0.507-0.556-1.373-0.838-2.573-0.838h-4.85c-0.704 0-1.274-0.57-1.274-1.274v-4.603c0.001-0.081 0.04-6.204-3.815-10.11-2.171-2.201-5.207-3.317-9.025-3.317-4.124 0-7.385 1.177-9.692 3.497-3.809 3.831-3.82 9.517-3.819 9.574v5.191c0 0.704-0.571 1.274-1.274 1.274h-4.515c-0.048 0-0.096-0.003-0.144-0.008-0.01-0.004-1.727-0.164-2.784 0.792-0.607 0.548-0.915 1.421-0.915 2.594v29.658c0 0.074-0.007 0.147-0.019 0.219 0 0-0.153 1.045 0.431 1.726 0.421 0.49 1.185 0.739 2.271 0.739h10.206c1.929 0 3.369-0.434 4.164-1.254 0.752-0.778 0.732-1.689 0.731-1.727l-0.002-26.313c0-0.608 0.43-1.132 1.026-1.25 0.262-0.051 6.471-1.239 10.206 1.828 1.789 1.468 2.696 3.609 2.696 6.36-0.101 2.264-1.587 6.294-6.374 6.909l0.129 11.884c-0.001 0.052-0.001 1.366 0.969 2.345 0.8 0.807 2.07 1.216 3.776 1.216h33.243c4.616-7.388 7.293-16.112 7.293-25.465 0-26.583-21.549-48.132-48.132-48.132s-48.132 21.549-48.132 48.132 21.549 48.132 48.132 48.132c16.129 0 30.394-7.941 39.128-20.118h-31.535z"/>
  </g>
 </g>
</svg>
